<mxfile host="app.diagrams.net" modified="2024-06-10T12:35:47.379Z" agent="Mozilla/5.0 (Macintosh; Intel Mac OS X 10_15_7) AppleWebKit/537.36 (KHTML, like Gecko) Chrome/125.0.0.0 Safari/537.36" version="24.5.2" etag="HdFAryM7yz0zYG-ao7Cv" type="github">
  <diagram name="Seite-1" id="ety6VozThco01V0hG4by">
    <mxGraphModel>
      <root>
        <mxCell id="0" />
        <mxCell id="1" parent="0" />
      </root>
    </mxGraphModel>
  </diagram>
</mxfile>
